# xmcd
#
# Track frame offsets: 
#        150
#        10983
#        24726
#        44454
#        66407
#        80304
#        98186
#        121068
#        142814
#        165204
#        180584
#        196015
#        208370
#
# Disc length: 3027 seconds
#
# Revision: 0
# Processed by: cddbd v1.5.2PL0 Copyright (c) Steve Scherf et al.
# Submitted via: ExactAudioCopy v0.99pb5
#
DISCID=a60bd10d
DTITLE=AJ Downing And The Buick6 - Way Back Home
DYEAR=2010
DGENRE=Americana
TTITLE0=Way Back Home
TTITLE1=Ann Marie
TTITLE2=Pickin Up the Pieces
TTITLE3=Don't Cry Maria
TTITLE4=River In The Rain
TTITLE5=Rockin Little Rebel
TTITLE6=Chisolm County
TTITLE7=Old Ways
TTITLE8=Number 9 Blues
TTITLE9=Solid Ground
TTITLE10=Trouble Town
TTITLE11=Facebook Song
TTITLE12=Freeze
EXTD=
EXTT0=
EXTT1=
EXTT2=
EXTT3=
EXTT4=
EXTT5=
EXTT6=
EXTT7=
EXTT8=
EXTT9=
EXTT10=
EXTT11=
EXTT12=
PLAYORDER=
